<svg width="8" height="14" viewBox="0 0 8 14" fill="none" xmlns="http://www.w3.org/2000/svg">
<path d="M5.31396 7.071L0.363964 2.121C0.181806 1.93239 0.0810113 1.67979 0.0832898 1.4176C0.0855682 1.1554 0.190737 0.904586 0.376145 0.719178C0.561553 0.53377 0.812366 0.428601 1.07456 0.426323C1.33676 0.424044 1.58936 0.524839 1.77796 0.706997L7.43496 6.364C7.62243 6.55152 7.72775 6.80583 7.72775 7.071C7.72775 7.33616 7.62243 7.59047 7.43496 7.778L1.77796 13.435C1.58936 13.6172 1.33676 13.7179 1.07456 13.7157C0.812366 13.7134 0.561553 13.6082 0.376145 13.4228C0.190737 13.2374 0.0855682 12.9866 0.0832898 12.7244C0.0810113 12.4622 0.181806 12.2096 0.363964 12.021L5.31396 7.071Z" fill="#697077"/>
</svg>
