<svg width="15" height="8" viewBox="0 0 15 8" fill="none" xmlns="http://www.w3.org/2000/svg">
<path d="M7.5709 5.314L12.5209 0.364C12.6131 0.26849 12.7235 0.192308 12.8455 0.139899C12.9675 0.0874898 13.0987 0.0599036 13.2315 0.0587498C13.3643 0.0575959 13.496 0.0828977 13.6189 0.133179C13.7417 0.183459 13.8534 0.257713 13.9473 0.351605C14.0412 0.445498 14.1154 0.55715 14.1657 0.680046C14.216 0.802943 14.2413 0.934622 14.2402 1.0674C14.239 1.20018 14.2114 1.3314 14.159 1.4534C14.1066 1.57541 14.0304 1.68575 13.9349 1.778L8.2779 7.435C8.09037 7.62247 7.83606 7.72779 7.5709 7.72779C7.30574 7.72779 7.05143 7.62247 6.8639 7.435L1.2069 1.778C1.11139 1.68575 1.03521 1.57541 0.982798 1.4534C0.930389 1.3314 0.902803 1.20018 0.901649 1.0674C0.900495 0.934622 0.925797 0.802943 0.976078 0.680046C1.02636 0.55715 1.10061 0.445498 1.1945 0.351605C1.2884 0.257713 1.40005 0.183459 1.52295 0.133179C1.64584 0.0828977 1.77752 0.0575959 1.9103 0.0587498C2.04308 0.0599036 2.1743 0.0874898 2.2963 0.139899C2.41831 0.192308 2.52865 0.26849 2.6209 0.364L7.5709 5.314Z" fill="#21272A"/>
</svg>
