<svg width="14" height="10" viewBox="0 0 14 10" fill="none" xmlns="http://www.w3.org/2000/svg">
<path d="M5.48599 9.22989C5.35472 9.23016 5.2247 9.2045 5.10337 9.1544C4.98204 9.10429 4.87181 9.03071 4.77899 8.93789L0.536988 4.69489C0.441415 4.60271 0.365157 4.49242 0.312663 4.37046C0.26017 4.24849 0.232492 4.11729 0.231245 3.98451C0.229999 3.85174 0.255208 3.72004 0.305401 3.59711C0.355595 3.47418 0.429769 3.36248 0.523594 3.26852C0.61742 3.17456 0.729018 3.10023 0.851878 3.04986C0.974737 2.99949 1.1064 2.9741 1.23918 2.97516C1.37196 2.97622 1.50319 3.00371 1.62523 3.05603C1.74727 3.10835 1.85767 3.18445 1.94999 3.27989L5.48499 6.81489L11.85 0.451894C12.0375 0.264253 12.2919 0.158785 12.5571 0.158691C12.8224 0.158598 13.0768 0.263886 13.2645 0.451394C13.4521 0.638902 13.5576 0.89327 13.5577 1.15854C13.5578 1.42381 13.4525 1.67825 13.265 1.86589L6.19299 8.93789C6.10017 9.03071 5.98993 9.10429 5.86861 9.1544C5.74728 9.2045 5.61725 9.23016 5.48599 9.22989Z" fill="#25A249"/>
</svg>
