<svg width="15" height="15" viewBox="0 0 15 15" fill="none" xmlns="http://www.w3.org/2000/svg">
<path d="M8.3999 6.4V1.4C8.3999 1.13479 8.29455 0.880431 8.10701 0.692895C7.91947 0.505358 7.66512 0.400002 7.3999 0.400002C7.13469 0.400002 6.88033 0.505358 6.6928 0.692895C6.50526 0.880431 6.3999 1.13479 6.3999 1.4V6.4H1.3999C1.13469 6.4 0.880332 6.50536 0.692796 6.69289C0.505259 6.88043 0.399902 7.13479 0.399902 7.4C0.399902 7.66522 0.505259 7.91957 0.692796 8.10711C0.880332 8.29464 1.13469 8.4 1.3999 8.4H6.3999V13.4C6.3999 13.6652 6.50526 13.9196 6.6928 14.1071C6.88033 14.2946 7.13469 14.4 7.3999 14.4C7.66512 14.4 7.91947 14.2946 8.10701 14.1071C8.29455 13.9196 8.3999 13.6652 8.3999 13.4V8.4H13.3999C13.6651 8.4 13.9195 8.29464 14.107 8.10711C14.2945 7.91957 14.3999 7.66522 14.3999 7.4C14.3999 7.13479 14.2945 6.88043 14.107 6.69289C13.9195 6.50536 13.6651 6.4 13.3999 6.4H8.3999Z" fill="#0F62FE"/>
</svg>
