<svg width="15" height="15" viewBox="0 0 15 15" fill="none" xmlns="http://www.w3.org/2000/svg">
<path d="M8.3999 6.3999V1.3999C8.3999 1.13469 8.29455 0.880332 8.10701 0.692796C7.91947 0.505259 7.66512 0.399902 7.3999 0.399902C7.13469 0.399902 6.88033 0.505259 6.6928 0.692796C6.50526 0.880332 6.3999 1.13469 6.3999 1.3999V6.3999H1.3999C1.13469 6.3999 0.880332 6.50526 0.692796 6.6928C0.505259 6.88033 0.399902 7.13469 0.399902 7.3999C0.399902 7.66512 0.505259 7.91947 0.692796 8.10701C0.880332 8.29455 1.13469 8.3999 1.3999 8.3999H6.3999V13.3999C6.3999 13.6651 6.50526 13.9195 6.6928 14.107C6.88033 14.2945 7.13469 14.3999 7.3999 14.3999C7.66512 14.3999 7.91947 14.2945 8.10701 14.107C8.29455 13.9195 8.3999 13.6651 8.3999 13.3999V8.3999H13.3999C13.6651 8.3999 13.9195 8.29455 14.107 8.10701C14.2945 7.91947 14.3999 7.66512 14.3999 7.3999C14.3999 7.13469 14.2945 6.88033 14.107 6.6928C13.9195 6.50526 13.6651 6.3999 13.3999 6.3999H8.3999Z" fill="#21272A"/>
</svg>
